<svg width="128" height="166" viewBox="0 0 128 166" fill="none" xmlns="http://www.w3.org/2000/svg">
<path fill-rule="evenodd" clip-rule="evenodd" d="M17.9147 127.043C10.2588 119.541 5.42843 109.626 4.24038 98.9731C3.05234 88.3204 5.57952 77.5843 11.3946 68.5801L41.6727 21.7092C48.3646 11.3501 58.8975 4.07363 70.9544 1.48051C83.0113 -1.1126 95.6044 1.19006 105.964 7.88194C116.323 14.5738 123.599 25.1067 126.192 37.1636C128.785 49.2205 126.483 61.8136 119.791 72.1727L89.5127 119.044C83.6954 128.046 74.9476 134.764 64.7484 138.061C54.5492 141.357 43.5245 141.031 33.5383 137.136L17.8946 161.353C16.5563 163.424 14.4497 164.88 12.0383 165.398C9.62692 165.917 7.1083 165.456 5.03648 164.118C2.96466 162.78 1.50936 160.673 0.990739 158.262C0.47212 155.85 0.932652 153.332 2.27102 151.26L17.9147 127.043ZM95.8708 23.5056C102.086 27.5207 106.452 33.8404 108.008 41.0746C109.564 48.3087 108.182 55.8646 104.167 62.08L73.8891 108.951C70.7586 113.8 66.2018 117.559 60.8461 119.711C55.4905 121.863 49.5994 122.301 43.9843 120.966L68.3582 83.2346C69.6965 81.1627 70.1571 78.6441 69.6384 76.2327C69.1198 73.8214 67.6645 71.7148 65.5927 70.3764C63.5209 69.038 61.0023 68.5775 58.5909 69.0961C56.1795 69.6147 54.0729 71.07 52.7345 73.1419L28.3607 110.873C24.8348 106.303 22.8124 100.753 22.572 94.9862C22.3316 89.2194 23.885 83.52 27.0182 78.6728L57.2963 31.8019C61.3115 25.5865 67.6312 21.2206 74.8653 19.6647C82.0995 18.1088 89.6554 19.4904 95.8708 23.5056Z" fill="#E1E1E1" fill-opacity="0.08"/>
</svg>
