<svg width="1799" height="601" viewBox="0 0 1799 601" fill="none" xmlns="http://www.w3.org/2000/svg">
<rect width="1799" height="601" fill="#051F13"/>
<path d="M685.009 353.35C670.789 353.35 659.494 348.985 651.124 340.255C642.844 331.435 638.704 318.925 638.704 302.725C638.704 286.705 642.709 274.285 650.719 265.465C658.819 256.555 670.114 252.1 684.604 252.1C691.264 252.1 696.844 252.505 701.344 253.315C703.504 253.675 705.304 254.755 706.744 256.555C708.184 258.355 708.904 260.38 708.904 262.63V263.71C708.904 265.6 708.094 267.085 706.474 268.165C704.944 269.245 703.279 269.56 701.479 269.11C697.069 267.94 692.119 267.355 686.629 267.355C677.719 267.355 670.699 270.415 665.569 276.535C660.529 282.655 658.009 291.385 658.009 302.725C658.009 313.975 660.619 322.705 665.839 328.915C671.149 335.035 678.214 338.095 687.034 338.095C692.974 338.095 698.059 337.555 702.289 336.475C704.089 336.025 705.754 336.34 707.284 337.42C708.904 338.5 709.714 339.985 709.714 341.875V342.82C709.714 345.07 708.994 347.095 707.554 348.895C706.204 350.605 704.404 351.64 702.154 352C697.024 352.9 691.309 353.35 685.009 353.35ZM864.064 268.84V301.375C864.064 302.005 864.424 302.41 865.144 302.59C868.564 303.04 871.894 303.265 875.134 303.265C882.424 303.265 887.959 301.69 891.739 298.54C895.609 295.3 897.544 290.71 897.544 284.77C897.544 272.8 890.074 266.815 875.134 266.815C871.894 266.815 868.564 267.04 865.144 267.49C864.424 267.67 864.064 268.12 864.064 268.84ZM852.994 352C850.924 352 849.124 351.235 847.594 349.705C846.154 348.175 845.434 346.375 845.434 344.305V261.82C845.434 259.66 846.154 257.725 847.594 256.015C849.034 254.305 850.834 253.36 852.994 253.18C860.644 252.46 868.024 252.1 875.134 252.1C888.634 252.1 898.759 254.8 905.509 260.2C912.259 265.51 915.634 273.25 915.634 283.42C915.634 294.67 912.349 303.175 905.779 308.935C899.299 314.695 889.669 317.575 876.889 317.575C873.919 317.575 870.004 317.395 865.144 317.035C864.424 317.035 864.064 317.395 864.064 318.115V344.305C864.064 346.375 863.299 348.175 861.769 349.705C860.239 351.235 858.439 352 856.369 352H852.994ZM948.834 268.84V298.135C948.834 298.855 949.239 299.215 950.049 299.215H956.799C972.819 299.215 980.829 293.5 980.829 282.07C980.829 271.9 973.404 266.815 958.554 266.815C955.854 266.815 953.019 267.04 950.049 267.49C949.239 267.67 948.834 268.12 948.834 268.84ZM937.899 352C935.829 352 934.029 351.235 932.499 349.705C930.969 348.175 930.204 346.375 930.204 344.305V261.82C930.204 259.66 930.924 257.725 932.364 256.015C933.804 254.305 935.604 253.36 937.764 253.18C945.414 252.46 952.794 252.1 959.904 252.1C973.134 252.1 983.034 254.575 989.604 259.525C996.174 264.385 999.459 271.27 999.459 280.18C999.459 286.57 997.704 292.195 994.194 297.055C990.774 301.915 986.139 305.335 980.289 307.315C980.199 307.315 980.154 307.36 980.154 307.45C980.154 307.63 980.199 307.72 980.289 307.72C984.609 310.42 988.299 315.73 991.359 323.65L999.459 344.845C1000.09 346.555 999.864 348.175 998.784 349.705C997.794 351.235 996.399 352 994.599 352H990.414C988.074 352 985.959 351.37 984.069 350.11C982.179 348.76 980.829 347.005 980.019 344.845L972.459 324.055C970.839 319.735 968.994 316.9 966.924 315.55C964.854 314.2 961.299 313.525 956.259 313.525H950.049C949.239 313.525 948.834 313.93 948.834 314.74V344.305C948.834 346.375 948.069 348.175 946.539 349.705C945.099 351.235 943.344 352 941.274 352H937.899ZM1041.01 221.995C1046.14 221.995 1050.01 224.155 1052.62 228.475L1059.1 238.87C1060 240.31 1060.05 241.75 1059.24 243.19C1058.43 244.63 1057.17 245.35 1055.46 245.35H1054.51C1049.38 245.35 1045.15 243.46 1041.82 239.68L1031.29 227.665C1030.3 226.585 1030.08 225.37 1030.62 224.02C1031.25 222.67 1032.33 221.995 1033.86 221.995H1041.01ZM1023.46 352C1021.39 352 1019.59 351.235 1018.06 349.705C1016.53 348.175 1015.77 346.375 1015.77 344.305V261.145C1015.77 259.075 1016.53 257.275 1018.06 255.745C1019.59 254.215 1021.39 253.45 1023.46 253.45H1069.36C1071.43 253.45 1073.23 254.215 1074.76 255.745C1076.29 257.275 1077.06 259.075 1077.06 261.145C1077.06 263.215 1076.29 265.015 1074.76 266.545C1073.23 267.985 1071.43 268.705 1069.36 268.705H1035.88C1035.07 268.705 1034.67 269.11 1034.67 269.92V291.655C1034.67 292.465 1035.07 292.87 1035.88 292.87H1067.07C1069.14 292.87 1070.85 293.59 1072.2 295.03C1073.64 296.47 1074.36 298.18 1074.36 300.16C1074.36 302.14 1073.64 303.85 1072.2 305.29C1070.85 306.64 1069.14 307.315 1067.07 307.315H1035.88C1035.07 307.315 1034.67 307.72 1034.67 308.53V335.53C1034.67 336.34 1035.07 336.745 1035.88 336.745H1069.36C1071.43 336.745 1073.23 337.51 1074.76 339.04C1076.29 340.48 1077.06 342.235 1077.06 344.305C1077.06 346.375 1076.29 348.175 1074.76 349.705C1073.23 351.235 1071.43 352 1069.36 352H1023.46ZM1124.25 310.42C1113.45 306.82 1105.62 302.455 1100.76 297.325C1095.99 292.195 1093.6 285.985 1093.6 278.695C1093.6 270.505 1096.35 264.025 1101.84 259.255C1107.33 254.485 1115.02 252.1 1124.92 252.1C1133.29 252.1 1140.58 253.045 1146.79 254.935C1148.95 255.565 1150.66 256.87 1151.92 258.85C1153.27 260.74 1153.95 262.855 1153.95 265.195V266.41C1153.95 268.12 1153.18 269.47 1151.65 270.46C1150.12 271.36 1148.55 271.495 1146.93 270.865C1140.18 268.255 1133.29 266.95 1126.27 266.95C1121.77 266.95 1118.35 267.985 1116.01 270.055C1113.67 272.125 1112.5 275.005 1112.5 278.695C1112.5 285.175 1116.73 289.81 1125.19 292.6C1137.34 296.47 1145.76 300.88 1150.44 305.83C1155.21 310.78 1157.59 317.17 1157.59 325C1157.59 343.9 1145.94 353.35 1122.63 353.35C1115.34 353.35 1108.72 352.225 1102.78 349.975C1100.62 349.165 1098.91 347.77 1097.65 345.79C1096.48 343.81 1095.9 341.605 1095.9 339.175V337.555C1095.9 335.845 1096.62 334.63 1098.06 333.91C1099.5 333.1 1100.98 333.055 1102.51 333.775C1108.45 336.745 1114.71 338.23 1121.28 338.23C1132.71 338.23 1138.42 333.91 1138.42 325.27C1138.42 321.76 1137.34 318.88 1135.18 316.63C1133.02 314.29 1129.38 312.22 1124.25 310.42Z" fill="#D0FFE0"/>
<path d="M750.095 252C746.177 252 743.002 255.176 743.002 259.093V291.329C742.919 299.054 745.663 306.57 750.768 312.605C755.873 318.64 763.026 322.823 771.019 324.448L770.794 345.228C770.775 347.006 771.504 348.718 772.82 349.988C774.137 351.258 775.933 351.982 777.815 352C779.696 352.018 781.508 351.329 782.851 350.085C784.195 348.84 784.961 347.143 784.98 345.365L785.204 324.585C793.23 323.114 800.473 319.07 805.707 313.135C810.942 307.2 813.847 299.739 813.931 292.013C813.931 292.013 813.913 271.438 813.958 258.968C813.972 255.131 810.868 252 807.032 252C803.083 252 799.877 255.174 799.86 259.123C799.806 271.139 799.745 291.876 799.745 291.876C799.702 296.036 798.294 300.081 795.717 303.454C793.14 306.827 789.519 309.362 785.354 310.709L785.704 278.333C785.723 276.555 784.995 274.843 783.678 273.573C782.361 272.303 780.565 271.579 778.684 271.561C776.803 271.543 774.991 272.232 773.647 273.476C772.303 274.72 771.538 276.418 771.518 278.196L771.169 310.572C767.034 309.145 763.469 306.541 760.965 303.119C758.461 299.697 757.141 295.625 757.188 291.465V259.093C757.188 255.176 754.012 252 750.095 252Z" fill="#D0FFE0"/>
<path fill-rule="evenodd" clip-rule="evenodd" d="M871.08 152.873C865.467 147.373 861.926 140.103 861.055 132.293C860.185 124.482 862.038 116.61 866.302 110.008L888.503 75.6398C893.41 68.0441 901.133 62.7084 909.973 60.8065C918.813 58.9046 928.045 60.5924 935.64 65.4985C943.235 70.4046 948.569 78.1272 950.47 86.9673C952.37 95.8075 950.682 105.041 945.775 112.637L923.574 147.005C919.308 153.606 912.894 158.532 905.416 160.949C897.938 163.367 889.855 163.128 882.534 160.273L871.063 178.03C870.082 179.549 868.537 180.616 866.769 180.996C865.001 181.377 863.155 181.039 861.636 180.058C860.117 179.077 859.05 177.532 858.67 175.764C858.29 173.996 858.628 172.149 859.609 170.63L871.08 152.873ZM928.24 76.9544C932.796 79.8981 935.997 84.5316 937.138 89.8357C938.278 95.1398 937.265 100.68 934.321 105.237L912.119 139.605C909.824 143.161 906.483 145.917 902.556 147.495C898.629 149.073 894.31 149.395 890.193 148.416L908.065 120.75C909.047 119.231 909.384 117.384 909.004 115.616C908.624 113.848 907.557 112.303 906.038 111.322C904.519 110.341 902.673 110.003 900.905 110.384C899.137 110.764 897.592 111.831 896.611 113.35L878.739 141.017C876.154 137.666 874.672 133.597 874.496 129.368C874.32 125.14 875.459 120.961 877.756 117.407L899.958 83.0392C902.902 78.4818 907.535 75.2803 912.839 74.1392C918.143 72.9981 923.683 74.0108 928.24 76.9544Z" fill="#D0FFE0"/>
<path d="M849.008 429.144C846.448 428.291 844.592 427.256 843.44 426.04C842.309 424.824 841.744 423.352 841.744 421.624C841.744 419.683 842.394 418.147 843.696 417.016C844.997 415.885 846.821 415.32 849.168 415.32C851.152 415.32 852.88 415.544 854.352 415.992C854.864 416.141 855.269 416.451 855.568 416.92C855.888 417.368 856.048 417.869 856.048 418.424V418.712C856.048 419.117 855.866 419.437 855.504 419.672C855.141 419.885 854.768 419.917 854.384 419.768C852.784 419.149 851.152 418.84 849.488 418.84C848.421 418.84 847.61 419.085 847.056 419.576C846.501 420.067 846.224 420.749 846.224 421.624C846.224 423.16 847.226 424.259 849.232 424.92C852.112 425.837 854.106 426.883 855.216 428.056C856.346 429.229 856.912 430.744 856.912 432.6C856.912 437.08 854.149 439.32 848.624 439.32C846.896 439.32 845.328 439.053 843.92 438.52C843.408 438.328 843.002 437.997 842.704 437.528C842.426 437.059 842.288 436.536 842.288 435.96V435.576C842.288 435.171 842.458 434.883 842.8 434.712C843.141 434.52 843.493 434.509 843.856 434.68C845.264 435.384 846.746 435.736 848.304 435.736C851.013 435.736 852.368 434.712 852.368 432.664C852.368 431.832 852.112 431.149 851.6 430.616C851.088 430.061 850.224 429.571 849.008 429.144ZM876.152 427.32C876.152 421.773 874.125 419 870.072 419C866.019 419 863.992 421.773 863.992 427.32C863.992 432.867 866.019 435.64 870.072 435.64C874.125 435.64 876.152 432.867 876.152 427.32ZM877.848 436.152C875.949 438.264 873.357 439.32 870.072 439.32C866.787 439.32 864.184 438.264 862.264 436.152C860.365 434.04 859.416 431.096 859.416 427.32C859.416 423.544 860.365 420.6 862.264 418.488C864.184 416.376 866.787 415.32 870.072 415.32C873.357 415.32 875.949 416.376 877.848 418.488C879.768 420.6 880.728 423.544 880.728 427.32C880.728 431.096 879.768 434.04 877.848 436.152ZM899.965 427.32C899.965 421.773 897.938 419 893.885 419C889.831 419 887.805 421.773 887.805 427.32C887.805 432.867 889.831 435.64 893.885 435.64C897.938 435.64 899.965 432.867 899.965 427.32ZM901.661 436.152C899.762 438.264 897.17 439.32 893.885 439.32C890.599 439.32 887.997 438.264 886.077 436.152C884.178 434.04 883.229 431.096 883.229 427.32C883.229 423.544 884.178 420.6 886.077 418.488C887.997 416.376 890.599 415.32 893.885 415.32C897.17 415.32 899.762 416.376 901.661 418.488C903.581 420.6 904.541 423.544 904.541 427.32C904.541 431.096 903.581 434.04 901.661 436.152ZM909.961 439C909.47 439 909.043 438.819 908.681 438.456C908.339 438.093 908.169 437.667 908.169 437.176V417.464C908.169 416.973 908.339 416.547 908.681 416.184C909.043 415.821 909.47 415.64 909.961 415.64H910.665C911.881 415.64 912.777 416.173 913.353 417.24L921.257 431.512C921.257 431.533 921.267 431.544 921.289 431.544C921.31 431.544 921.321 431.533 921.321 431.512V417.464C921.321 416.973 921.502 416.547 921.865 416.184C922.227 415.821 922.654 415.64 923.145 415.64H923.849C924.339 415.64 924.755 415.821 925.097 416.184C925.459 416.547 925.641 416.973 925.641 417.464V437.176C925.641 437.667 925.459 438.093 925.097 438.456C924.755 438.819 924.339 439 923.849 439H923.145C921.929 439 921.033 438.467 920.457 437.4L912.553 423.128C912.553 423.107 912.542 423.096 912.521 423.096C912.499 423.096 912.489 423.107 912.489 423.128V437.176C912.489 437.667 912.307 438.093 911.945 438.456C911.582 438.819 911.155 439 910.665 439H909.961ZM932.844 439C932.353 439 931.927 438.819 931.564 438.456C931.201 438.093 931.02 437.667 931.02 437.176V435.384C931.02 434.893 931.201 434.467 931.564 434.104C931.927 433.741 932.353 433.56 932.844 433.56H934.316C934.807 433.56 935.233 433.741 935.596 434.104C935.959 434.467 936.14 434.893 936.14 435.384V437.176C936.14 437.667 935.959 438.093 935.596 438.456C935.233 438.819 934.807 439 934.316 439H932.844ZM942.844 439C942.353 439 941.927 438.819 941.564 438.456C941.201 438.093 941.02 437.667 941.02 437.176V435.384C941.02 434.893 941.201 434.467 941.564 434.104C941.927 433.741 942.353 433.56 942.844 433.56H944.316C944.807 433.56 945.233 433.741 945.596 434.104C945.959 434.467 946.14 434.893 946.14 435.384V437.176C946.14 437.667 945.959 438.093 945.596 438.456C945.233 438.819 944.807 439 944.316 439H942.844ZM952.844 439C952.353 439 951.927 438.819 951.564 438.456C951.201 438.093 951.02 437.667 951.02 437.176V435.384C951.02 434.893 951.201 434.467 951.564 434.104C951.927 433.741 952.353 433.56 952.844 433.56H954.316C954.807 433.56 955.233 433.741 955.596 434.104C955.959 434.467 956.14 434.893 956.14 435.384V437.176C956.14 437.667 955.959 438.093 955.596 438.456C955.233 438.819 954.807 439 954.316 439H952.844Z" fill="#D0FFE0"/>
</svg>
