<svg width="100" height="100" viewBox="0 0 100 100" fill="none" xmlns="http://www.w3.org/2000/svg">
<rect width="100" height="100" fill="#051F13"/>
<path fill-rule="evenodd" clip-rule="evenodd" d="M35.0132 65.9621C32.046 63.0546 30.1739 59.2116 29.7134 55.083C29.253 50.9544 30.2324 46.7934 32.4862 43.3036L44.221 25.138C46.8145 21.1232 50.8968 18.303 55.5696 17.298C60.2425 16.293 65.1232 17.1855 69.138 19.779C73.1529 22.3726 75.973 26.4548 76.978 31.1276C77.983 35.8005 77.0906 40.6812 74.497 44.696L62.7622 62.8617C60.5076 66.3509 57.1172 68.9544 53.1644 70.2321C49.2115 71.5098 44.9387 71.3832 41.0684 69.8737L35.0054 79.2593C34.4867 80.0622 33.6702 80.6263 32.7356 80.8273C31.8011 81.0283 30.8249 80.8498 30.022 80.3311C29.219 79.8124 28.655 78.9959 28.454 78.0613C28.253 77.1268 28.4315 76.1506 28.9502 75.3477L35.0132 65.9621ZM65.2264 25.8342C67.6353 27.3903 69.3274 29.8397 69.9304 32.6434C70.5334 35.4471 69.9979 38.3755 68.4418 40.7844L56.707 58.95C55.4937 60.8294 53.7277 62.2863 51.652 63.1203C49.5763 63.9542 47.2931 64.1241 45.1169 63.6066L54.5634 48.9832C55.0821 48.1803 55.2606 47.2041 55.0596 46.2696C54.8586 45.335 54.2946 44.5185 53.4916 43.9998C52.6886 43.4811 51.7125 43.3026 50.7779 43.5036C49.8433 43.7046 49.0269 44.2687 48.5082 45.0716L39.0617 59.695C37.6952 57.9239 36.9114 55.7728 36.8182 53.5378C36.725 51.3028 37.327 49.0939 38.5414 47.2152L50.2762 29.0496C51.8323 26.6407 54.2817 24.9486 57.0854 24.3456C59.8891 23.7426 62.8175 24.2781 65.2264 25.8342Z" fill="#D0FFE0"/>
</svg>
